<svg width="58" height="57" viewBox="0 0 58 57" fill="none" xmlns="http://www.w3.org/2000/svg">
<g clip-path="url(#clip0_15_1963)">
<path d="M7.05128 0C3.30556 0 0.265564 3.04 0.265564 6.78571V50.2143C0.265564 53.96 3.30556 57 7.05128 57H50.4798C54.2256 57 57.2656 53.96 57.2656 50.2143V6.78571C57.2656 3.04 54.2256 0 50.4798 0H7.05128ZM11.1227 19H20.2569C21.2476 19 26.6079 18.9326 26.6079 23.8454C26.6079 26.4511 24.8295 27.3324 24.0288 27.726C25.2231 28.106 27.4084 29.2057 27.4084 32.5714C27.4084 37.7693 21.4499 38 20.6492 38H11.1227V19ZM34.1941 19H43.6941V21.7143H34.1941V19ZM15.1941 22.2974V26.7506H19.5651C20.1622 26.7506 22.1415 26.4236 22.1415 24.4286C22.1415 22.4336 19.5637 22.2974 19.1701 22.2974H15.1941ZM39.2569 23.0714C44.5498 23.0714 45.9872 27.1968 46.2043 28.174C46.4079 29.1647 46.4084 30.0336 46.4084 31.2143H35.6865C35.6865 32.395 36.3121 35.0551 39.4743 35.0551C40.3157 35.0551 40.9384 34.8523 41.5762 34.4587C42.2005 34.0651 42.4197 33.6833 42.6233 33.2898H46.1911C45.5668 34.8505 44.7257 36.0333 43.4635 36.8205C42.2014 37.6076 40.7357 38 39.0528 38C37.9942 38 36.9491 37.7972 35.8906 37.4036C35.0491 37.01 34.2088 36.4259 33.5845 35.8424C32.9602 35.2452 32.5394 34.4577 32.1187 33.4806C31.6979 32.6935 31.4798 31.5129 31.4798 30.5357C31.4798 29.5586 31.8741 23.0714 39.2569 23.0714ZM39.2569 25.8255C36.1898 25.8255 35.6865 28.7712 35.6865 28.9612H42.4192C42.202 27.9841 41.3198 25.8255 39.2569 25.8255ZM15.1941 29.4648V34.7026H19.7427C20.1349 34.7026 22.9023 34.5813 22.9023 32.1791C22.9023 29.7906 20.728 29.4648 19.7427 29.4648H15.1941Z" fill="#141414"/>
</g>
<defs>
<clipPath id="clip0_15_1963">
<rect x="0.265564" width="57" height="57" rx="28.5" fill="white"/>
</clipPath>
</defs>
</svg>
