<svg width="58" height="57" viewBox="0 0 58 57" fill="none" xmlns="http://www.w3.org/2000/svg">
<path d="M6.91847 0C3.17275 0 0.132751 3.04 0.132751 6.78571V50.2143C0.132751 53.96 3.17275 57 6.91847 57H50.347C54.0927 57 57.1327 53.96 57.1327 50.2143V6.78571C57.1327 3.04 54.0927 0 50.347 0H6.91847ZM10.9899 19H20.1241C21.1148 19 26.4751 18.9326 26.4751 23.8454C26.4751 26.4511 24.6967 27.3324 23.896 27.726C25.0903 28.106 27.2756 29.2057 27.2756 32.5714C27.2756 37.7693 21.3171 38 20.5164 38H10.9899V19ZM34.0613 19H43.5613V21.7143H34.0613V19ZM15.0613 22.2974V26.7506H19.4323C20.0294 26.7506 22.0087 26.4236 22.0087 24.4286C22.0087 22.4336 19.4309 22.2974 19.0373 22.2974H15.0613ZM39.1241 23.0714C44.417 23.0714 45.8544 27.1968 46.0715 28.174C46.2751 29.1647 46.2756 30.0336 46.2756 31.2143H35.5536C35.5536 32.395 36.1793 35.0551 39.3415 35.0551C40.1829 35.0551 40.8056 34.8523 41.4434 34.4587C42.0677 34.0651 42.2869 33.6833 42.4905 33.2898H46.0583C45.434 34.8505 44.5929 36.0333 43.3307 36.8205C42.0686 37.6076 40.6029 38 38.92 38C37.8614 38 36.8163 37.7972 35.7578 37.4036C34.9163 37.01 34.076 36.4259 33.4517 35.8424C32.8274 35.2452 32.4066 34.4577 31.9858 33.4806C31.5651 32.6935 31.347 31.5129 31.347 30.5357C31.347 29.5586 31.7412 23.0714 39.1241 23.0714ZM39.1241 25.8255C36.057 25.8255 35.5536 28.7712 35.5536 28.9612H42.2863C42.0692 27.9841 41.187 25.8255 39.1241 25.8255ZM15.0613 29.4648V34.7026H19.6099C20.0021 34.7026 22.7695 34.5813 22.7695 32.1791C22.7695 29.7906 20.5952 29.4648 19.6099 29.4648H15.0613Z" fill="#EDEDED"/>
</svg>
