<svg width="595" height="513" viewBox="0 0 595 513" fill="none" xmlns="http://www.w3.org/2000/svg">
<path d="M34.37 66.5716C-49.15 150.106 37.7506 245.375 102.379 281.971C122.663 293.456 117.909 305.503 74.3403 330.898C-15.742 383.405 1.55857 465.746 59.426 499.16C117.293 532.573 178.144 499.16 238.397 465.746C298.651 432.332 326 458.5 417.369 499.16C515.443 542.803 508.644 418.012 496.713 378.632C484.781 339.251 556.967 280.777 583.812 185.31C610.658 89.8419 593.358 16.4511 485.975 2.13086C438.779 -4.16308 394.699 -0.255783 296.861 66.5716C199.024 133.399 138.77 -37.8462 34.37 66.5716Z" fill="#FF506A"/>
</svg>
