<svg width="58" height="57" viewBox="0 0 58 57" fill="none" xmlns="http://www.w3.org/2000/svg">
<path d="M29.4263 0C45.1996 0 57.9854 12.7593 57.9854 28.5C57.9854 44.2407 45.1996 57 29.4263 57C13.653 57 0.867188 44.2407 0.867188 28.5C0.867188 12.7593 13.653 0 29.4263 0ZM39.278 40.1168C39.8032 38.5085 42.2643 22.4791 42.5685 19.3205C42.6604 18.3639 42.3574 17.7282 41.7639 17.4445C41.0462 17.1 39.9833 17.2722 38.7502 17.7159C37.0591 18.3243 15.4386 27.4852 14.1894 28.0155C13.0048 28.5173 11.8848 29.065 11.8848 29.8581C11.8848 30.4157 12.2163 30.7292 13.1302 31.0551C14.0814 31.3934 16.4766 32.1183 17.8909 32.5074C19.2531 32.8828 20.8039 32.5569 21.6731 32.0179C22.5945 31.4467 33.2272 24.3464 33.9908 23.7244C34.7532 23.1023 35.3616 23.8991 34.7383 24.5224C34.115 25.1444 26.8163 32.2137 25.8539 33.1926C24.6855 34.3809 25.515 35.6126 26.2985 36.1058C27.1937 36.6684 33.632 40.978 34.6017 41.6695C35.5715 42.3609 36.5549 42.6744 37.4552 42.6744C38.3554 42.6744 38.8297 41.491 39.278 40.1168Z" fill="#EDEDED"/>
</svg>
