<svg width="58" height="57" viewBox="0 0 58 57" fill="none" xmlns="http://www.w3.org/2000/svg">
<path d="M28.5591 0C44.3325 0 57.1183 12.7593 57.1183 28.5C57.1183 44.2407 44.3325 57 28.5591 57C12.7858 57 0 44.2407 0 28.5C0 12.7593 12.7858 0 28.5591 0ZM38.4108 40.1168C38.936 38.5085 41.3971 22.4791 41.7013 19.3205C41.7932 18.3639 41.4902 17.7282 40.8967 17.4445C40.179 17.1 39.1161 17.2722 37.8831 17.7159C36.1919 18.3243 14.5714 27.4852 13.3222 28.0155C12.1376 28.5173 11.0176 29.065 11.0176 29.8581C11.0176 30.4157 11.3491 30.7292 12.263 31.0551C13.2142 31.3934 15.6094 32.1183 17.0237 32.5074C18.3859 32.8828 19.9368 32.5569 20.8059 32.0179C21.7273 31.4467 32.36 24.3464 33.1236 23.7244C33.886 23.1023 34.4945 23.8991 33.8711 24.5224C33.2478 25.1444 25.9491 32.2137 24.9868 33.1926C23.8183 34.3809 24.6478 35.6126 25.4313 36.1058C26.3265 36.6684 32.7648 40.978 33.7345 41.6695C34.7043 42.3609 35.6877 42.6744 36.588 42.6744C37.4882 42.6744 37.9625 41.491 38.4108 40.1168Z" fill="#141414"/>
</svg>
