<svg width="58" height="57" viewBox="0 0 58 57" fill="none" xmlns="http://www.w3.org/2000/svg">
<g clip-path="url(#clip0_19_2915)">
<path d="M28.6329 0C12.9183 0 0.132996 12.7853 0.132996 28.5C0.132996 33.407 1.40062 38.2321 3.80453 42.4898L0.178844 55.4263C0.0598879 55.8513 0.175127 56.3073 0.48243 56.6233C0.719103 56.8674 1.04128 57 1.37212 57C1.47125 57 1.57162 56.9876 1.66951 56.9641L15.171 53.6197C19.2936 55.8327 23.9366 57 28.6329 57C44.3475 57 57.1328 44.2147 57.1328 28.5C57.1328 12.7853 44.3475 0 28.6329 0ZM42.9696 38.5568C42.3599 40.2445 39.4356 41.7847 38.0304 41.9917C36.769 42.1763 35.173 42.2556 33.4209 41.7054C32.359 41.3709 30.9959 40.9272 29.25 40.1825C21.9106 37.0525 17.1177 29.7552 16.7509 29.2732C16.3854 28.7912 13.7634 25.3563 13.7634 21.8013C13.7634 18.2462 15.6531 16.4978 16.3247 15.7741C16.9963 15.0505 17.7881 14.8696 18.2763 14.8696C18.7645 14.8696 19.2515 14.8758 19.679 14.8956C20.1288 14.9179 20.7322 14.7258 21.3258 16.136C21.9354 17.5833 23.3988 21.1383 23.5797 21.5014C23.7631 21.8632 23.8846 22.2858 23.6417 22.7678C23.3988 23.2498 23.2774 23.5509 22.9106 23.9735C22.5438 24.396 22.1424 24.9152 21.8128 25.2398C21.446 25.6004 21.0656 25.9908 21.4918 26.7144C21.9181 27.4381 23.3864 29.8036 25.5623 31.7193C28.3566 34.1802 30.7146 34.9435 31.4457 35.3053C32.1768 35.6671 32.6043 35.6064 33.0306 35.1244C33.4568 34.6411 34.8595 33.0142 35.3465 32.2917C35.8335 31.5693 36.3217 31.6883 36.9933 31.9299C37.6649 32.1703 41.2621 33.9175 41.9932 34.2793C42.7243 34.6411 43.2125 34.822 43.3959 35.1232C43.5792 35.423 43.5792 36.8703 42.9696 38.5568Z" fill="#EDEDED"/>
</g>
<defs>
<clipPath id="clip0_19_2915">
<rect width="57" height="57" fill="white" transform="translate(0.132812)"/>
</clipPath>
</defs>
</svg>
