<svg width="58" height="57" viewBox="0 0 58 57" fill="none" xmlns="http://www.w3.org/2000/svg">
<g clip-path="url(#clip0_19_2905)">
<path d="M28.7657 0C13.0511 0 0.265809 12.7853 0.265809 28.5C0.265809 33.407 1.53344 38.2321 3.93734 42.4898L0.311657 55.4263C0.1927 55.8513 0.307939 56.3073 0.615243 56.6233C0.851916 56.8674 1.17409 57 1.50494 57C1.60407 57 1.70443 56.9876 1.80233 56.9641L15.3038 53.6197C19.4264 55.8327 24.0694 57 28.7657 57C44.4803 57 57.2656 44.2147 57.2656 28.5C57.2656 12.7853 44.4803 0 28.7657 0ZM43.1024 38.5568C42.4928 40.2445 39.5684 41.7847 38.1633 41.9917C36.9018 42.1763 35.3058 42.2556 33.5537 41.7054C32.4918 41.3709 31.1287 40.9272 29.3828 40.1825C22.0435 37.0525 17.2505 29.7552 16.8837 29.2732C16.5182 28.7912 13.8962 25.3563 13.8962 21.8013C13.8962 18.2462 15.7859 16.4978 16.4575 15.7741C17.1291 15.0505 17.9209 14.8696 18.4091 14.8696C18.8973 14.8696 19.3843 14.8758 19.8118 14.8956C20.2616 14.9179 20.865 14.7258 21.4586 16.136C22.0682 17.5833 23.5316 21.1383 23.7126 21.5014C23.896 21.8632 24.0174 22.2858 23.7745 22.7678C23.5316 23.2498 23.4102 23.5509 23.0434 23.9735C22.6767 24.396 22.2752 24.9152 21.9456 25.2398C21.5788 25.6004 21.1984 25.9908 21.6246 26.7144C22.0509 27.4381 23.5193 29.8036 25.6952 31.7193C28.4894 34.1802 30.8475 34.9435 31.5785 35.3053C32.3096 35.6671 32.7371 35.6064 33.1634 35.1244C33.5896 34.6411 34.9923 33.0142 35.4793 32.2917C35.9663 31.5693 36.4545 31.6883 37.1261 31.9299C37.7977 32.1703 41.3949 33.9175 42.126 34.2793C42.8571 34.6411 43.3453 34.822 43.5287 35.1232C43.7121 35.423 43.7121 36.8703 43.1024 38.5568Z" fill="black"/>
</g>
<g clip-path="url(#clip1_19_2905)">
<path d="M28.7657 0C13.0511 0 0.265809 12.7853 0.265809 28.5C0.265809 33.407 1.53344 38.2321 3.93734 42.4898L0.311657 55.4263C0.1927 55.8513 0.307939 56.3073 0.615243 56.6233C0.851916 56.8674 1.17409 57 1.50494 57C1.60407 57 1.70443 56.9876 1.80233 56.9641L15.3038 53.6197C19.4264 55.8327 24.0694 57 28.7657 57C44.4803 57 57.2656 44.2147 57.2656 28.5C57.2656 12.7853 44.4803 0 28.7657 0ZM43.1024 38.5568C42.4928 40.2445 39.5684 41.7847 38.1633 41.9917C36.9018 42.1763 35.3058 42.2556 33.5537 41.7054C32.4918 41.3709 31.1287 40.9272 29.3828 40.1825C22.0435 37.0525 17.2505 29.7552 16.8837 29.2732C16.5182 28.7912 13.8962 25.3563 13.8962 21.8013C13.8962 18.2462 15.7859 16.4978 16.4575 15.7741C17.1291 15.0505 17.9209 14.8696 18.4091 14.8696C18.8973 14.8696 19.3843 14.8758 19.8118 14.8956C20.2616 14.9179 20.865 14.7258 21.4586 16.136C22.0682 17.5833 23.5316 21.1383 23.7126 21.5014C23.896 21.8632 24.0174 22.2858 23.7745 22.7678C23.5316 23.2498 23.4102 23.5509 23.0434 23.9735C22.6767 24.396 22.2752 24.9152 21.9456 25.2398C21.5788 25.6004 21.1984 25.9908 21.6246 26.7144C22.0509 27.4381 23.5193 29.8036 25.6952 31.7193C28.4894 34.1802 30.8475 34.9435 31.5785 35.3053C32.3096 35.6671 32.7371 35.6064 33.1634 35.1244C33.5896 34.6411 34.9923 33.0142 35.4793 32.2917C35.9663 31.5693 36.4545 31.6883 37.1261 31.9299C37.7977 32.1703 41.3949 33.9175 42.126 34.2793C42.8571 34.6411 43.3453 34.822 43.5287 35.1232C43.7121 35.423 43.7121 36.8703 43.1024 38.5568Z" fill="black"/>
</g>
<defs>
<clipPath id="clip0_19_2905">
<rect x="0.265625" width="57" height="57" rx="28.5" fill="white"/>
</clipPath>
<clipPath id="clip1_19_2905">
<rect width="57" height="57" fill="white" transform="translate(0.265625)"/>
</clipPath>
</defs>
</svg>
